<?xml version="1.0" encoding="utf-8"?>
<svg version="1.1" id="Layer_1" x="0px" y="0px" width="100%" viewBox="0 0 438 179" enable-background="new 0 0 438 179" xmlns="http://www.w3.org/2000/svg">
  <path opacity="1.000000" stroke="none" d="M 373.35 164.367 C 350.671 171.608 327.923 173.689 304.519 172.292 C 275.682 170.571 249.081 162.115 223.483 149.318 C 208.75 141.952 193.844 134.868 178.685 128.437 C 163.403 121.955 147.053 119.596 130.598 117.934 C 113.397 116.196 96.35 116.408 79.558 120.912 C 62.047 125.609 46.543 134.088 33.156 146.321 C 29.249 149.891 25.417 153.597 21.965 157.598 C 18.315 161.828 15.532 159.189 12.618 156.981 C 9 154.241 11.491 151.97 13.529 150.055 C 20.553 143.453 27.628 136.9 34.851 130.518 C 37.513 128.166 39.066 125.764 39.052 122.016 C 38.936 91.018 39.021 60.019 38.955 29.021 C 38.938 21.303 36.018 17.87 28.486 16.005 C 27.84 15.845 26.285 15.959 25.87 15.524 C 23.725 13.274 24.529 13.621 23.523 12.65 C 24.745 11.793 24.533 10.262 25.798 10.193 C 31.283 9.896 38.187 10.017 43.687 10.002 C 48.02 9.991 52.353 9.975 56.686 10.012 C 63.525 10.07 63.971 10.501 63.987 17.539 C 64.019 32.539 63.987 47.538 64.018 62.537 C 64.022 64.451 64.243 66.364 64.401 68.859 C 66.455 68.033 67.827 67.552 69.14 66.943 C 89.38 57.557 113.136 62.141 128.069 78.739 C 134.157 85.506 138.335 93.539 139.809 102.644 C 140.429 106.468 142.536 108.149 145.982 108.705 C 149.431 109.262 152.941 109.505 156.347 110.24 C 159.895 111.004 160.92 109.286 160.941 106.274 C 160.986 99.441 160.995 92.608 160.998 85.775 C 161.004 68.276 161.02 50.777 160.989 33.278 C 160.969 21.951 159.229 19.616 148.557 15.902 C 147.624 15.577 146.916 14.602 146.104 13.929 C 147.126 13.308 148.142 12.159 149.172 12.146 C 159.669 12.02 170.174 11.906 180.659 12.282 C 182.131 12.335 184.468 14.889 184.735 16.553 C 185.362 20.455 184.996 24.521 184.997 28.52 C 185.005 56.352 185.085 84.185 184.928 112.016 C 184.901 116.848 186.356 119.613 191.13 121.346 C 197.785 123.762 204.126 127.045 211.409 130.321 C 211.653 127.641 211.968 125.752 211.974 123.862 C 212.017 111.029 212.029 98.196 211.983 85.363 C 211.948 75.573 209.643 72.63 200.12 69.721 C 199.087 69.406 198.174 68.693 197.097 68.106 C 200.304 65.363 245.512 65.067 250.455 67.994 C 248.631 68.864 247.305 69.711 245.856 70.152 C 239.372 72.126 236.239 76.85 236.154 83.202 C 235.917 101.031 236.033 118.865 236.093 136.697 C 236.107 141.006 237.639 144.196 242.286 145.746 C 251.109 148.687 259.777 152.097 268.507 155.315 C 271.899 156.565 275.872 155.51 277.167 152.323 C 278.826 148.24 279.709 143.935 279.805 139.685 C 280.223 121.029 280.027 102.357 279.972 83.692 C 279.947 75.44 277.765 72.679 269.691 69.913 C 268.412 69.475 267.239 68.726 266.017 68.12 C 266.124 67.664 266.231 67.207 266.338 66.751 C 291.134 64.566 300.634 65.294 319.602 66.751 C 319.702 67.233 319.802 67.716 319.902 68.199 C 317.996 68.86 316.113 69.598 314.18 70.17 C 307.704 72.087 305.055 75.325 305.038 82.091 C 304.978 105.757 304.969 129.422 305.045 153.088 C 305.068 160.16 306.966 162.068 314.018 161.941 C 321.994 161.797 329.964 161.293 337.932 160.873 C 338.833 160.825 339.708 160.301 340.948 159.878 C 340.351 158.713 340.091 157.731 339.479 157.08 C 325.606 142.325 323.154 124.564 325.842 105.455 C 328.171 88.894 336.351 76.027 351.102 68.088 C 367.411 59.31 392.1 60.582 407.822 74.584 C 415.847 81.732 420.578 91.134 422.628 101.75 C 423.531 106.43 420.51 106.996 416.945 106.993 C 398.946 106.978 380.947 106.994 362.947 107 C 351.997 107.004 352.094 107.006 351.973 117.904 C 351.843 129.595 354.14 140.708 359.129 151.292 C 360.933 155.119 363.259 156.081 367.517 154.722 C 383.176 149.725 397.435 142.231 408.819 130.382 C 414.498 124.47 418.741 117.129 423.314 110.223 C 425.847 106.398 431.634 105.491 434.271 109.305 C 435.002 110.362 434.487 112.789 433.803 114.238 C 425.015 132.837 410.813 146.276 392.939 155.907 C 386.816 159.206 380.142 161.484 373.35 164.367 M 64.134 110.583 C 64.565 113.6 66.528 113.061 68.631 112.662 C 80.681 110.376 92.732 108.093 104.812 105.979 C 107.696 105.474 109.167 104.388 108.272 101.374 C 106.763 96.298 105.623 91.048 103.507 86.232 C 100.514 79.422 95.406 74.487 87.929 72.572 C 76.13 69.55 64.031 78.777 64.008 90.79 C 63.995 97.116 64.043 103.443 64.134 110.583 M 388.888 99.921 C 391.387 99.707 391.775 98.709 392.028 96.147 C 392.823 88.105 389.365 80.413 383.959 74.027 C 377.527 66.429 368.581 68.521 361.799 75.801 C 356.088 81.932 355.677 87.661 354.709 93.806 C 353.949 98.632 354.553 99.883 359.542 99.94 C 369.034 100.05 378.528 99.967 388.888 99.921 Z" style="fill: rgb(30, 69, 189);"/>
</svg>